<svg width="22" height="22" viewBox="0 0 22 22" fill="none" xmlns="http://www.w3.org/2000/svg">
<path d="M16 1H6C3.23858 1 1 3.23858 1 6V16C1 18.7614 3.23858 21 6 21H16C18.7614 21 21 18.7614 21 16V6C21 3.23858 18.7614 1 16 1Z" stroke="white" stroke-width="1.5" stroke-linecap="round" stroke-linejoin="round"/>
<path d="M15.0002 10.37C15.1236 11.2022 14.9815 12.0522 14.594 12.799C14.2065 13.5458 13.5933 14.1514 12.8418 14.5296C12.0903 14.9079 11.2386 15.0396 10.408 14.9059C9.57732 14.7722 8.80996 14.38 8.21503 13.7851C7.62011 13.1902 7.22793 12.4228 7.09426 11.5922C6.9606 10.7615 7.09226 9.90986 7.47052 9.15834C7.84878 8.40682 8.45438 7.79371 9.20118 7.40621C9.94798 7.01871 10.7979 6.87655 11.6302 6.99997C12.4791 7.12585 13.265 7.52143 13.8719 8.12827C14.4787 8.73512 14.8743 9.52104 15.0002 10.37Z" stroke="white" stroke-width="1.5" stroke-linecap="round" stroke-linejoin="round"/>
<path d="M16.5 5.5H16.51" stroke="white" stroke-width="1.5" stroke-linecap="round" stroke-linejoin="round"/>
</svg>
