<svg xmlns="http://www.w3.org/2000/svg" width="2444.792" height="1777.347" viewBox="0 0 2444.792 1777.347"><defs><style>.a{opacity:0.35;}.b{fill:none;stroke:#dd003b;stroke-miterlimit:10;stroke-width:3px;}</style></defs><g class="a" transform="matrix(0.966, 0.259, -0.259, 0.966, -6117.135, -13064.38)"><path class="b" d="M9592.575,12160.512c13.749-11,250.242-511.322,1000.972-560.9s1123.661-643.64,1123.661-643.64" transform="translate(-0.001 -0.001)"/><path class="b" d="M9592.575,12198.136c13.936-10.764,258.963-506.962,1010.433-543.676s1134.521-624.3,1134.521-624.3" transform="translate(-0.001 -37.623)"/><path class="b" d="M9592.575,12236.871c14.121-10.518,267.78-502.36,1019.776-525.94s1145.254-604.384,1145.254-604.384" transform="translate(-0.001 -76.359)"/><path class="b" d="M9592.575,12275.962c14.3-10.27,276.518-497.606,1028.809-508.044s1155.638-584.285,1155.638-584.285" transform="translate(-0.001 -115.449)"/><path class="b" d="M9592.575,12315.4c14.479-10.018,285.167-492.7,1037.527-489.993s1165.67-564.006,1165.67-564.006" transform="translate(-0.001 -154.885)"/><path class="b" d="M9592.575,12355.162c14.652-9.765,293.731-487.643,1045.929-471.794s1175.346-543.556,1175.346-543.556" transform="translate(-0.001 -194.649)"/><path class="b" d="M9592.575,12395.245c14.82-9.507,302.205-482.437,1054.013-453.448s1184.66-522.938,1184.66-522.938" transform="translate(-0.001 -234.734)"/><path class="b" d="M9592.575,12435.636c14.984-9.245,310.588-477.082,1061.772-434.965s1193.616-502.163,1193.616-502.163" transform="translate(-0.001 -275.124)"/><path class="b" d="M9592.575,12468.5c15.114-9.033,317.293-472.648,1067.81-419.928s1200.588-485.259,1200.588-485.259" transform="translate(-0.001 -307.987)"/><path class="b" d="M9592.575,12508.609c15.267-8.773,325.343-467.145,1074.845-401.577s1208.725-464.621,1208.725-464.621" transform="translate(-0.001 -348.098)"/><path class="b" d="M9592.575,12549.791c15.417-8.506,333.454-461.391,1081.7-382.739s1216.655-443.434,1216.655-443.434" transform="translate(-0.001 -389.279)"/><path class="b" d="M9592.575,12591.23c15.563-8.233,341.464-455.494,1088.218-363.783s1224.219-422.11,1224.219-422.11" transform="translate(-0.001 -430.719)"/><path class="b" d="M9592.575,12632.916c15.706-7.961,349.369-449.457,1094.407-344.715s1231.405-400.66,1231.405-400.66" transform="translate(-0.001 -472.405)"/><path class="b" d="M9592.575,12674.837c15.841-7.687,357.168-443.287,1100.263-325.544s1238.217-379.086,1238.217-379.086" transform="translate(-0.001 -514.325)"/><path class="b" d="M9592.575,12716.979c15.975-7.407,364.858-436.979,1105.781-306.272s1244.651-357.4,1244.651-357.4" transform="translate(-0.001 -556.467)"/><path class="b" d="M9592.575,12759.328c16.1-7.127,372.436-430.537,1110.963-286.906s1250.705-335.6,1250.705-335.6" transform="translate(-0.001 -598.817)"/></g></svg>