<svg class="svghero" viewBox="0 0 930 836" fill="none" xmlns="http://www.w3.org/2000/svg" id="yui_3_17_2_1_1616882563192_20">
                <g class="gradientbg" id="yui_3_17_2_1_1616882563192_24">
                    <path d="M930.4 0H0C8.7 96.9 66.8 170.1 131.6 222.8C228.2 300.8 280.5 420.8 276.2 544.9C271.9 660.6 313 787.5 495.6 829.3C641.8 862.9 794.7 754.2 930.4 589V0Z" fill="url(#paint0_linear)" id="yui_3_17_2_1_1616882563192_23"></path>
                </g>
        
                <g class="maincontent">
                    <path d="M312.5 316.6C407.7 393.2 461.4 513.8 457.1 638.4C454.5 705.8 468 763 496.8 808.5C502.8 818 509.5 827 516.8 835.4H518.2C467.3 776.9 455.5 702.5 457.7 638.7C460 577.4 447.9 515.8 423.2 460.2C398.5 404.4 360.2 354.6 313.1 316.3C236 253.8 155.3 149.8 188.5 0H187.4C173.8 61.4 178 119.7 200.4 173.8C221.6 225.6 259.6 273.7 312.5 316.6Z" fill="white"></path>
                    <path d="M722.3 624.5H273.3C270.9 624.5 268.7 622.6 268.7 619.9C268.7 617.5 270.6 615.3 273.3 615.3H722.5C724.9 615.3 727.1 617.2 727.1 619.9C726.9 622.5 724.9 624.5 722.3 624.5Z" fill="#E2E2F7"></path>
                    <path d="M614.1 216.1C613.4 216.1 612.4 216.1 611.7 215.9C600.1 214.5 591 203.6 589.5 201.9C587.8 203.6 577 213.2 566.1 212.3C560.6 211.8 556 208.4 552.1 202.7C544.1 190.4 553.8 171.9 563.4 158.6C575.7 141.7 591.8 127.1 602 120.6L602.5 120.4V120.9C603 139.9 613.1 156.1 621.8 170.5C632.4 187.6 640.6 201.1 627.6 211.4C623.2 214.4 618.9 216.1 614.1 216.1ZM589.5 200.9L589.7 201.1C589.7 201.3 599.6 213.6 611.9 215.1C617.4 215.8 622.5 214.1 627.3 210.3C639.8 200.2 631.6 186.9 621.3 170.1C612.6 155.9 602.5 139.8 601.8 120.7C591.7 127.4 575.8 141.9 564 158.5C550.5 177 546.6 192.5 552.7 201.8C556.3 207.3 560.9 210.5 566.2 211C566.7 211 567.4 211 567.9 211C578.7 211 589.4 200.6 589.4 200.6L589.5 200.9Z" fill="white"></path>
                    <path d="M604.4 266.9C604.2 266.7 591.4 249.3 589 201.4C586.6 153.5 596.7 130.1 597 129.9L597.5 130.1C597.5 130.3 587.1 153.7 589.5 201.4C591.9 249.1 604.7 266.4 604.9 266.4L604.4 266.9Z" fill="white"></path>
                    <path d="M618.4 193.7C610.2 184.6 594.5 183.3 589 187.4L588.8 186.9C594.6 182.6 610.5 183.8 618.9 193.2L618.4 193.7Z" fill="white"></path>
                    <path d="M589 175.6C589 175.6 577.7 167.4 561.8 175.1L561.6 174.6C577.7 166.9 589.3 175.1 589.3 175.3L589 175.6Z" fill="white"></path>
                    <path d="M605.4 158.3C605.4 158.3 600.1 151.6 591.4 154.7L591.2 154.2C600.4 150.8 605.9 158.1 605.9 158.1L605.4 158.3Z" fill="white"></path>
                    <path d="M593.6 141.4C593.6 141.4 590.9 139.2 585.4 141.2L585.2 140.7C591 138.5 593.9 140.9 593.9 140.9L593.6 141.4Z" fill="white"></path>
                    <path d="M559.8 187.9L559.6 187.4C575.7 178.5 589 185.5 589.2 185.5L589 186C588.8 186 575.8 179.2 559.8 187.9Z" fill="white"></path>
                    <path d="M612.1 174.2C601 165.8 589.7 171.1 589.7 171.1L589.5 170.6C589.5 170.6 601.3 165.3 612.6 173.7L612.1 174.2Z" fill="white"></path>
                    <path d="M590.2 159.7C590.2 159.7 583.5 153.7 572.8 158L572.6 157.5C583.4 153.2 590.4 159.4 590.7 159.4L590.2 159.7Z" fill="white"></path>
                    <path d="M602 144.3C598.6 141.2 593.3 144.1 593.3 144.1L593.1 143.6C593.1 143.6 598.6 140.5 602.5 144.1L602 144.3Z" fill="white"></path>
                    <path d="M595.5 134.4C595.5 134.4 594.5 133.4 591.9 134.2L591.7 133.7C594.6 132.7 595.8 134.2 596 134.2L595.5 134.4Z" fill="white"></path>
                    <path d="M321.5 557.8C320.8 557.8 320.3 557.8 319.6 557.8C303 556.6 302.2 540.7 301.3 520.7C300.6 503.8 299.6 484.8 289.5 468.9L289.3 468.4H289.8C301.8 468.2 323.5 471 343.1 478.3C358.5 483.8 377.1 493.7 377.3 508.4C377.5 515.1 375.4 520.4 371.3 524.1C362.9 531.1 348.4 529.2 346.2 528.9C346 531.3 344.5 545.3 335.6 553C331.6 556.1 327 557.8 321.5 557.8ZM290.2 468.7C300.3 484.6 301 503.6 302 520.5C303 540.2 303.7 555.9 319.6 557.1C325.6 557.6 330.9 555.9 335 552.3C344.4 544.1 345.4 528.5 345.4 528.2V528H345.6C345.8 528 361.7 530.9 370.7 523.4C374.8 520 376.7 514.7 376.7 508.2C376.5 496.9 364.4 486.5 343 478.6C324.2 471.9 303.5 468.7 291.2 468.7C290.9 468.7 290.4 468.7 290.2 468.7Z" fill="#33FF9D"></path>
                    <path d="M369.9 590.8H369.2C369.2 590.6 370.2 569.1 345.3 528.4C320.5 487.5 298.8 474 298.5 474L298.7 473.5C298.9 473.7 320.6 487.2 345.5 528.2C370.9 569.1 369.9 590.5 369.9 590.8Z" fill="#33FF9D"></path>
                    <path d="M317.1 538H316.6C318.3 525.7 330.3 515.8 337.8 515.8H338V516.5H337.8C330.9 516.6 318.8 526.2 317.1 538Z" fill="#33FF9D"></path>
                    <path d="M331.4 506.7L330.9 506.5C330.9 506.3 336 493 353.6 490.4V490.9C336.2 493.5 331.4 506.5 331.4 506.7Z" fill="#33FF9D"></path>
                    <path d="M308 501.4H307.3C307.3 501.4 308 492.2 317.4 490.1L317.6 490.6C308.7 492.8 308 501.4 308 501.4Z" fill="#33FF9D"></path>
                    <path d="M308.5 481L308 480.8C308 480.6 309 477.2 315 475.5L315.2 476C309.4 477.6 308.5 480.7 308.5 481Z" fill="#33FF9D"></path>
                    <path d="M337.4 515.1L336.9 514.9C336.9 514.7 344.1 501.7 362.4 499.7V500.2C344.4 502.1 337.6 515.1 337.4 515.1Z" fill="#33FF9D"></path>
                    <path d="M311.6 518.3L311.1 518.1C315.7 504.6 328.2 502.4 328.2 502.4V502.9C328.2 503.1 315.9 505.3 311.6 518.3Z" fill="#33FF9D"></path>
                    <path d="M321.2 494.2L320.7 494C320.7 494 323.1 484.8 334.4 482.2L334.6 482.7C323.7 485.3 321.2 494 321.2 494.2Z" fill="#33FF9D"></path>
                    <path d="M303.2 487.9L302.7 487.7C303.9 482.6 310.2 482.2 310.2 482.2V482.9C309.9 482.9 304.1 483.4 303.2 487.9Z" fill="#33FF9D"></path>
                    <path d="M302.9 476.1H302.4C302.4 476.1 302.6 474.2 305.5 473.5L305.7 474C303.2 474.7 302.9 476.1 302.9 476.1Z" fill="#33FF9D"></path>
                    <path d="M524.9 206.4C524.9 206.4 511.2 248.5 478.1 237.2C437.4 223.2 487.5 160.4 469.2 103.6C505.6 112.5 584.2 153.9 575.5 190.3C566.6 226.4 524.9 206.4 524.9 206.4Z" fill="#CCCCCC"></path>
                    <path d="M535.5 301.8L535 301.6C535 301.4 544.2 272 524.6 206.5C505.1 141 480.3 114.3 480 114L480.5 113.5C480.7 113.7 505.8 140.5 525.3 206.2C544.7 271.9 535.5 301.6 535.5 301.8Z" fill="white"></path>
                    <path d="M481.8 209.8L481.3 209.6C488 193 509 183.8 518.9 187L518.7 187.5C509 184.5 488.3 193.7 481.8 209.8Z" fill="white"></path>
                    <path d="M512.8 171.3L512.3 171.1C512.3 170.9 524.1 154.5 549.4 157.1V157.6C524.4 154.9 513.1 171.3 512.8 171.3Z" fill="white"></path>
                    <path d="M482.5 155.6L482 155.4C482 155.2 486.1 143.4 499.6 143.4H499.8V144.1H499.6C486.6 144.1 482.5 155.6 482.5 155.6Z" fill="white"></path>
                    <path d="M490.4 127.2L490 127C490 126.8 492.7 122.4 501.6 122.4V123.1C493.1 122.9 490.4 127.2 490.4 127.2Z" fill="white"></path>
                    <path d="M518.2 185.2L517.7 184.7C517.9 184.5 532.4 168.8 558.4 173.4V173.9C532.6 169.8 518.4 185.2 518.2 185.2Z" fill="white"></path>
                    <path d="M481.3 180.2L480.8 180C491.9 163.1 510 164.8 510.2 164.8V165.3C510 165.3 492.1 163.6 481.3 180.2Z" fill="white"></path>
                    <path d="M503.4 150.3L502.9 150.1C502.9 150.1 509.2 139 524.6 139C525.1 139 525.8 139 526.3 139V139.7C510 138.8 503.7 150.3 503.4 150.3Z" fill="white"></path>
                    <path d="M480.6 135.2L480.1 135C483.5 128.7 492.4 130.2 492.4 130.2V130.7C492.1 130.6 483.7 129.4 480.6 135.2Z" fill="white"></path>
                    <path d="M484.7 118.8L484.2 118.6C484.2 118.6 485.2 116.2 489.5 116V116.7C485.6 116.9 484.7 118.8 484.7 118.8Z" fill="white"></path>
                    <path d="M305.8 540.9C305.8 540.9 311.8 565 292.8 569.3C269.4 574.8 274.5 530 248.9 508.6C268.7 502.1 318.3 498.2 324.8 518C331.4 538 305.8 540.9 305.8 540.9Z" fill="#252F5A"></path>
                    <path d="M338.6 583.1C338.6 582.9 334.3 566.5 305.6 541.2C276.9 515.9 257.2 510.9 257.2 510.6L257.4 510.1C257.6 510.1 277.4 515.4 306.3 540.7C335.2 566 339.6 582.8 339.6 582.8L338.6 583.1Z" fill="white"></path>
                    <path d="M285.8 555.4C284.1 545.5 291.3 534.9 296.9 533.2L297.1 533.7C291.8 535.1 284.8 545.5 286.5 555.1L285.8 555.4Z" fill="white"></path>
                    <path d="M289.7 527.9H289C289 527.9 289.5 516.3 302.5 510.1L302.7 510.6C290.4 516.8 289.7 527.9 289.7 527.9Z" fill="white"></path>
                    <path d="M270.2 529.6C270.2 529.6 268.5 522.6 275.3 518.5L275.5 519C269.2 522.9 270.7 529.4 270.9 529.6H270.2Z" fill="white"></path>
                    <path d="M265.3 513.7C265.3 513.5 265.3 510.6 269.4 507.9L269.6 508.4C265.7 510.8 265.7 513.5 265.7 513.5L265.3 513.7Z" fill="white"></path>
                    <path d="M296.4 533H295.9C295.9 533 298.1 521 311.8 515.4L312 515.9C298.6 521.4 296.4 533 296.4 533Z" fill="white"></path>
                    <path d="M277.4 541.6H276.7C276.9 530.3 286.1 525.5 286.1 525.5L286.3 526C286.5 526.2 277.6 530.6 277.4 541.6Z" fill="white"></path>
                    <path d="M278.6 520.9C278.6 520.9 278.1 513.2 286.3 508.6L286.5 509.1C278.5 513.4 279 520.7 279 520.9H278.6Z" fill="white"></path>
                    <path d="M263.2 520.4C263 516.3 267.5 514.4 267.5 514.4L267.7 514.9C267.7 514.9 263.4 516.8 263.6 520.4H263.2Z" fill="white"></path>
                    <path d="M260.3 511.5C260.3 511.5 260.1 510.1 262.2 508.6L262.4 509.1C260.7 510.3 260.7 511.5 260.7 511.5H260.3Z" fill="white"></path>
                    <path d="M711.4 543.3C711.4 543.3 703.7 577.3 730.7 582.8C763.7 589.8 755.3 526.9 790.7 495.9C762.5 487.2 692.6 483.6 683.9 511.8C675 539.9 711.4 543.3 711.4 543.3Z" fill="#0ca750"></path>
                    <path d="M666.4 603.8L665.9 603.6C665.9 603.4 671.7 579.8 711.5 543.2C751.3 506.6 779 498.7 779.2 498.4L779.4 498.9C779.2 498.9 751.4 507.1 711.9 543.4C672.2 580.2 666.4 603.5 666.4 603.8Z" fill="#252F5A"></path>
                    <path d="M739.9 563.1H739.4C741.3 549.6 731.2 535.2 723.5 533.2L723.7 532.7C731.4 534.4 741.8 548.9 739.9 563.1Z" fill="#252F5A"></path>
                    <path d="M733.6 524.5C733.6 524.3 732.4 508.8 714.6 500.7L714.8 500.2C733.1 508.6 734.3 524.5 734.3 524.8L733.6 524.5Z" fill="#252F5A"></path>
                    <path d="M761.1 526.2L760.6 526C760.6 526 762.5 516.4 753.6 511.3L753.8 510.8C763.3 516.1 761.1 526 761.1 526.2Z" fill="#252F5A"></path>
                    <path d="M767.1 503.6H766.4C766.4 503.6 766.4 499.7 760.6 496.4L760.8 495.9C767.1 499.5 767.1 503.6 767.1 503.6Z" fill="#252F5A"></path>
                    <path d="M724.5 531.8C724.5 531.6 720.9 515.4 701.8 508L702 507.5C721.5 515 724.9 531.6 724.9 531.6L724.5 531.8Z" fill="#252F5A"></path>
                    <path d="M751.4 543.3C750.7 527.6 738.1 521.6 737.9 521.6L738.1 521.1C738.3 521.1 751.1 527.4 751.8 543.3H751.4Z" fill="#252F5A"></path>
                    <path d="M749 514.2H748.3C748.3 514.2 748.5 503.8 737.2 497.8L737.4 497.3C749.3 503.3 749 513.9 749 514.2Z" fill="#252F5A"></path>
                    <path d="M770.7 513H770C770.2 507.7 764 505.3 764 505.3L764.2 504.8C764.2 504.8 771 507.4 770.7 513Z" fill="#252F5A"></path>
                    <path d="M774.6 500.5H774.1H774.3H774.1C774.1 500.5 774.3 498.8 771.7 497.1L771.9 496.6C774.8 498.3 774.6 500.5 774.6 500.5Z" fill="#252F5A"></path>
                    <path d="M721.6 513.7C717.7 513.7 714.1 512.7 710.8 511.1C696.3 503.6 690.8 482.7 690.3 479.8C687.4 480.8 667.2 486.8 651.7 479.3C644.2 475.7 638.9 469.4 636 460.8C628.3 437.9 649.3 427.8 675.8 415.3C698.2 404.7 723.5 392.7 739.4 370L739.6 369.5L739.8 370C746.8 386.1 755.2 417.2 756.7 447.5C757.9 471.6 755 501.9 735.5 510.6C730.2 512.5 725.7 513.7 721.6 513.7ZM690.5 478.8V479C690.5 479.2 695.6 502.6 710.7 510.3C717.7 513.9 725.9 513.7 734.8 509.8C750 503.1 757.5 480.9 755.8 447.2C754.4 417.1 746.4 386.5 739.2 370.4C723.3 393 698 405.1 675.8 415.4C649.5 427.9 628.8 437.6 636.3 460.2C639.2 468.6 644.3 474.9 651.5 478.5C667.9 486.4 689.8 479 690.1 479L690.5 478.8Z" fill="#252F5A"></path>
                    <path d="M619.1 547.2L618.9 546.7C619.1 546.7 648.8 535.6 690 479C731.2 422.4 737.5 385.6 737.5 385.1H738C738 385.6 731.7 422.4 690.3 479.3C649 536.3 619.4 547.2 619.1 547.2Z" fill="#252F5A"></path>
                    <path d="M701.8 462.2C698.2 452.8 677.9 441.5 660.6 446.3L660.4 445.8C678.2 441 698.5 452.3 702.3 462.2H701.8Z" fill="#252F5A"></path>
                    <path d="M745.2 468.7C731.7 446.8 711.5 447.5 711.2 447.5V446.8C711.4 446.8 732.2 445.8 745.7 468.2L745.2 468.7Z" fill="#252F5A"></path>
                    <path d="M725.4 420C717.2 408.9 705.2 413 705.2 413.3L705 412.8C705.2 412.8 717.5 408.5 726 419.8L725.4 420Z" fill="#252F5A"></path>
                    <path d="M743.5 408.2C738.4 401.2 733.1 401.9 733.1 401.9V401.4C733.3 401.4 738.6 400.7 743.9 407.9L743.5 408.2Z" fill="#252F5A"></path>
                    <path d="M737.5 486.2C725 462.6 703.5 460.7 703.3 460.4V459.7C703.5 459.7 725.2 461.9 738 485.7L737.5 486.2Z" fill="#252F5A"></path>
                    <path d="M714.3 441.5C714.3 441.3 704.4 425.8 684.2 427.3V426.8C704.9 425.1 714.8 441 715 441.2L714.3 441.5Z" fill="#252F5A"></path>
                    <path d="M745.4 438.8C736 425.1 722.7 427 722.5 427V426.5C722.7 426.5 736.2 424.6 745.9 438.5L745.4 438.8Z" fill="#252F5A"></path>
                    <path d="M731.4 405.6C731.4 405.6 727.3 397.9 720.3 399.1V398.6C727.5 397.4 731.9 405.3 731.9 405.6H731.4Z" fill="#252F5A"></path>
                    <path d="M741.1 394.5C738.4 391.4 736.3 391.9 736.3 391.9L736.1 391.4C736.1 391.4 738.8 390.7 741.6 394L741.1 394.5Z" fill="#252F5A"></path>
                    <path d="M292.1 610.7C301.5 610.7 301.5 536.5 292.1 536.5H570.2C579.6 536.5 579.6 610.7 570.2 610.7H292.1Z" fill="#F5F5F7"></path>
                    <path d="M575.8 549.1H296.9C296.2 549.1 295.7 548.6 295.7 547.9C295.7 547.2 296.2 546.7 296.9 546.7H575.5C576.2 546.7 576.7 547.2 576.7 547.9C577 548.6 576.2 549.1 575.8 549.1Z" fill="#EBEBED"></path>
                    <path d="M575.8 563.8H296.9C296.2 563.8 295.7 563.3 295.7 562.6C295.7 561.9 296.2 561.4 296.9 561.4H575.5C576.2 561.4 576.7 561.9 576.7 562.6C576.7 563.3 576.2 563.8 575.8 563.8Z" fill="#EBEBED"></path>
                    <path d="M575.8 585.7H296.9C296.2 585.7 295.7 585.2 295.7 584.5C295.7 583.8 296.2 583.3 296.9 583.3H575.5C576.2 583.3 576.7 583.8 576.7 584.5C577 585.2 576.2 585.7 575.8 585.7Z" fill="#EBEBED"></path>
                    <path d="M575.8 600.4H296.9C296.2 600.4 295.7 599.9 295.7 599.2C295.7 598.5 296.2 598 296.9 598H575.5C576.2 598 576.7 598.5 576.7 599.2C577 599.9 576.2 600.4 575.8 600.4Z" fill="#EBEBED"></path>
                    <path d="M575.8 556.6H296.9C296.2 556.6 295.7 556.1 295.7 555.4C295.7 554.7 296.2 554.2 296.9 554.2H575.5C576.2 554.2 576.7 554.7 576.7 555.4C576.7 556.1 576.2 556.6 575.8 556.6Z" fill="#EBEBED"></path>
                    <path d="M575.8 571H296.9C296.2 571 295.7 570.5 295.7 569.8C295.7 569.1 296.2 568.6 296.9 568.6H575.5C576.2 568.6 576.7 569.1 576.7 569.8C577 570.5 576.2 571 575.8 571Z" fill="#EBEBED"></path>
                    <path d="M575.8 578.5H296.9C296.2 578.5 295.7 578 295.7 577.3C295.7 576.6 296.2 576.1 296.9 576.1H575.5C576.2 576.1 576.7 576.6 576.7 577.3C577 577.8 576.2 578.5 575.8 578.5Z" fill="#EBEBED"></path>
                    <path d="M575.8 592.9H296.9C296.2 592.9 295.7 592.4 295.7 591.7C295.7 591 296.2 590.5 296.9 590.5H575.5C576.2 590.5 576.7 591 576.7 591.7C577 592.4 576.2 592.9 575.8 592.9Z" fill="#EBEBED"></path>
                    <path d="M570.2 610.7C579.6 610.7 579.6 536.5 570.2 536.5H706.1C715.5 536.5 715.5 610.7 706.1 610.7H570.2Z" fill="#3021BF"></path>
                    <path d="M706.1 531.5H570.2C567.5 531.5 565.4 533.7 565.4 536.3C565.4 538.5 566.8 540.2 568.8 540.9C573.9 548.8 573.9 598.2 568.8 606.2C566.9 606.9 565.4 608.6 565.4 610.8C565.4 613.4 567.6 615.6 570.2 615.6H706.1C709 615.6 717.9 615.6 717.9 573.7C717.9 531.5 709 531.5 706.1 531.5ZM704.7 605.9H578.9C580.8 599.9 582 589.8 582 573.6C582 557.2 580.6 547.4 578.9 541.3H704.7C709.5 549.8 709.5 597.3 704.7 605.9Z" fill="#3021BF"></path>
                    <path d="M679.4 605.9C678.7 609.8 678 613.1 677 615.5H641.3C642.3 613.1 643 609.7 643.7 605.9C646.6 588.3 646.6 558.7 643.7 541.4C643 537.5 642.3 534.2 641.3 531.8H677C678 534.2 678.7 537.6 679.4 541.4C682.3 558.7 682.3 588.4 679.4 605.9Z" fill="#3932D6"></path>
                    <path d="M570.2 615.6H292.1C289.4 615.6 287.3 613.4 287.3 610.8C287.3 608.2 289.5 606 292.1 606H568.8C573.6 597.3 573.6 549.9 568.8 541.5H292.1C289.4 541.5 287.3 539.3 287.3 536.7C287.3 534.1 289.5 531.9 292.1 531.9H570.2C573.1 531.9 582 531.9 582 573.8C582 615.6 573.1 615.6 570.2 615.6Z" fill="#462BE2"></path>
                    <path d="M536.2 556.1V588.6C536.2 589.8 537.4 590.8 538.6 590.3L546.3 587.7L554 590.3C555.2 590.8 556.4 589.8 556.4 588.6V556.1C556.4 555.1 555.7 554.4 554.7 554.4H537.6C536.9 554.4 536.2 555.1 536.2 556.1Z" fill="#EBEBED"></path>
                    <path d="M537.9 591.5C537.2 591.5 536.7 591.3 536.2 591C535.5 590.5 535 589.6 535 588.6V556.1C535 554.7 536.2 553.2 537.9 553.2H555C556.4 553.2 557.9 554.4 557.9 556.1V588.6C557.9 589.6 557.4 590.5 556.7 591C556 591.5 555 591.7 554 591.5L546.5 589.1L539 591.5C538.6 591.5 538.2 591.5 537.9 591.5ZM546.3 586.4C546.5 586.4 546.5 586.4 546.8 586.4L554.5 589C554.7 589 555 589 555 589C555 589 555.2 588.8 555.2 588.5V556C555.2 555.8 555 555.5 554.7 555.5H537.6C537.4 555.5 537.1 555.7 537.1 556V588.5C537.1 588.7 537.3 589 537.3 589C537.3 589 537.5 589.2 537.8 589L545.5 586.4C546.1 586.4 546.1 586.4 546.3 586.4Z" fill="#EBEBED"></path>
                    <path d="M535 555.1V587.6C535 588.8 536.2 589.8 537.4 589.3L545.1 586.7L552.8 589.3C554 589.8 555.2 588.8 555.2 587.6V555.1C555.2 554.1 554.5 553.4 553.5 553.4H536.4C535.7 553.7 535 554.4 535 555.1Z" fill="#0ca750"></path>
                    <path d="M719.6 526.7C710.2 526.7 710.2 452.5 719.6 452.5H546.6C537.2 452.5 537.2 526.7 546.6 526.7H719.6Z" fill="#EBEBED"></path>
                    <path d="M541 465.3H714.5C715.2 465.3 715.7 464.8 715.7 464.1C715.7 463.4 715.2 462.9 714.5 462.9H541C540.3 462.9 539.8 463.4 539.8 464.1C539.8 464.6 540.3 465.3 541 465.3Z" fill="#F5F5F7"></path>
                    <path d="M541 479.7H714.5C715.2 479.7 715.7 479.2 715.7 478.5C715.7 477.8 715.2 477.3 714.5 477.3H541C540.3 477.3 539.8 477.8 539.8 478.5C539.8 479.3 540.3 479.7 541 479.7Z" fill="#F5F5F7"></path>
                    <path d="M541 501.9H714.5C715.2 501.9 715.7 501.4 715.7 500.7C715.7 500 715.2 499.5 714.5 499.5H541C540.3 499.5 539.8 500 539.8 500.7C539.8 501.4 540.3 501.9 541 501.9Z" fill="#F5F5F7"></path>
                    <path d="M541 516.4H714.5C715.2 516.4 715.7 515.9 715.7 515.2C715.7 514.5 715.2 514 714.5 514H541C540.3 514 539.8 514.5 539.8 515.2C539.8 515.9 540.3 516.4 541 516.4Z" fill="#F5F5F7"></path>
                    <path d="M541 472.5H714.5C715.2 472.5 715.7 472 715.7 471.3C715.7 470.6 715.2 470.1 714.5 470.1H541C540.3 470.1 539.8 470.6 539.8 471.3C539.8 472 540.3 472.5 541 472.5Z" fill="#F5F5F7"></path>
                    <path d="M541 487.2H714.5C715.2 487.2 715.7 486.7 715.7 486C715.7 485.3 715.2 484.8 714.5 484.8H541C540.3 484.8 539.8 485.3 539.8 486C539.8 486.7 540.3 487.2 541 487.2Z" fill="#F5F5F7"></path>
                    <path d="M541 494.4H714.5C715.2 494.4 715.7 493.9 715.7 493.2C715.7 492.5 715.2 492 714.5 492H541C540.3 492 539.8 492.5 539.8 493.2C539.8 494 540.3 494.4 541 494.4Z" fill="#F5F5F7"></path>
                    <path d="M541 509.1H714.5C715.2 509.1 715.7 508.6 715.7 507.9C715.7 507.2 715.2 506.7 714.5 506.7H541C540.3 506.7 539.8 507.2 539.8 507.9C539.8 508.6 540.3 509.1 541 509.1Z" fill="#F5F5F7"></path>
                    <path d="M546.6 526.7C537.2 526.7 537.2 452.5 546.6 452.5H355C345.6 452.5 345.6 526.7 355 526.7H546.6Z" fill="#FF8A33"></path>
                    <path d="M355 447.7H546.6C549.3 447.7 551.4 449.9 551.4 452.5C551.4 454.7 550 456.4 548 457.1C542.9 465 542.9 514.4 548 522.4C549.9 523.1 551.4 524.8 551.4 527C551.4 529.6 549.2 531.8 546.6 531.8H355C352.1 531.8 343.2 531.8 343.2 489.9C343.2 448 352.1 447.7 355 447.7ZM356.4 521.9H537.9C536 515.9 534.8 505.8 534.8 489.6C534.8 473.2 536.2 463.4 537.9 457.3H356.4C351.6 466 351.6 513.2 356.4 521.9Z" fill="#FF8A33"></path>
                    <path d="M381.5 521.9C382.2 525.8 382.9 529.1 383.9 531.5H402.5C401.5 529.1 400.8 525.7 400.1 521.9C397.2 504.3 397.2 474.7 400.1 457.4C400.8 453.5 401.5 450.2 402.5 447.8H383.9C382.9 450.2 382.2 453.6 381.5 457.4C378.6 474.9 378.6 504.3 381.5 521.9Z" fill="#FFA76C"></path>
                    <path d="M490.4 521.9C491.1 525.8 491.8 529.1 492.8 531.5H511.4C510.4 529.1 509.7 525.7 509 521.9C506.1 504.3 506.1 474.7 509 457.4C509.7 453.5 510.4 450.2 511.4 447.8H492.8C491.8 450.2 491.1 453.6 490.4 457.4C487.5 474.9 487.5 504.3 490.4 521.9Z" fill="#FFA76C"></path>
                    <path d="M407.5 521.9C408.2 525.8 408.9 529.1 409.9 531.5H421.5C420.5 529.1 419.8 525.7 419.1 521.9C416.2 504.3 416.2 474.7 419.1 457.4C419.8 453.5 420.5 450.2 421.5 447.8H409.9C408.9 450.2 408.2 453.6 407.5 457.4C404.6 474.9 404.6 504.3 407.5 521.9Z" fill="#FFA76C"></path>
                    <path d="M423.9 521.9C424.6 525.8 425.3 529.1 426.3 531.5H437.9C436.9 529.1 436.2 525.7 435.5 521.9C432.6 504.3 432.6 474.7 435.5 457.4C436.2 453.5 436.9 450.2 437.9 447.8H426.3C425.3 450.2 424.6 453.6 423.9 457.4C420.8 474.9 420.8 504.3 423.9 521.9Z" fill="#FFA76C"></path>
                    <path d="M546.6 531.5H719.6C722.3 531.5 724.4 529.3 724.4 526.7C724.4 524.1 722.2 521.9 719.6 521.9H548C543.2 513.2 543.2 465.8 548 457.4H719.6C722.3 457.4 724.4 455.2 724.4 452.6C724.4 450 722.2 447.8 719.6 447.8H546.6C543.7 447.8 534.8 447.8 534.8 489.7C534.8 531.5 543.7 531.5 546.6 531.5Z" fill="#D86212"></path>
                    <path d="M580.6 472.3V504.8C580.6 506 579.4 507 578.2 506.5L570.5 503.9L562.8 506.5C561.6 507 560.4 506 560.4 504.8V472.3C560.4 471.3 561.1 470.6 562.1 470.6H579.2C579.8 470.6 580.6 471.3 580.6 472.3Z" fill="#EBEBED"></path>
                    <path d="M578.9 507.7C579.6 507.7 580.1 507.5 580.6 507.2C581.3 506.7 581.8 505.8 581.8 504.8V472.3C581.8 470.9 580.6 469.4 578.9 469.4H561.8C560.4 469.4 558.9 470.6 558.9 472.3V504.8C558.9 505.8 559.4 506.7 560.1 507.2C560.8 507.7 561.8 507.9 562.8 507.7L570.3 505.3L577.8 507.7C578.2 507.7 578.4 507.7 578.9 507.7ZM570.4 502.6C570.2 502.6 570.2 502.6 569.9 502.6L562.2 505.2C562 505.2 561.7 505.2 561.7 505.2C561.7 505.2 561.5 505 561.5 504.7V472.2C561.5 472 561.7 471.7 562 471.7H579.1C579.3 471.7 579.6 471.9 579.6 472.2V504.7C579.6 504.9 579.4 505.2 579.4 505.2C579.4 505.2 579.2 505.4 578.9 505.2L571.2 502.6C570.7 502.6 570.7 502.6 570.4 502.6Z" fill="#EBEBED"></path>
                    <path d="M581.8 471.3V503.8C581.8 505 580.6 506 579.4 505.5L571.7 502.9L564 505.5C562.8 506 561.6 505 561.6 503.8V471.3C561.6 470.3 562.3 469.6 563.3 469.6H580.4C581.1 469.6 581.8 470.4 581.8 471.3Z" fill="#3021BF"></path>
                    <path d="M563.2 506.7C563.4 506.7 563.9 506.7 564.2 506.5L571.7 504.1L579.2 506.5C580.2 506.7 581.1 506.7 581.9 506C582.6 505.5 583.1 504.6 583.1 503.6V471.1C583.1 469.7 581.9 468.2 580.2 468.2H563C561.6 468.2 560.1 469.4 560.1 471.1V503.6C560.1 504.6 560.6 505.5 561.3 506C562 506.7 562.7 506.7 563.2 506.7ZM580.1 470.8C580.3 470.8 580.6 471 580.6 471.3V503.8C580.6 504 580.4 504.3 580.4 504.3C580.4 504.3 580.2 504.5 579.9 504.3L572.2 501.7C572 501.7 571.7 501.7 571.5 501.7L563.8 504.3C563.6 504.3 563.3 504.3 563.3 504.3C563.3 504.3 563.1 504.1 563.1 503.8V471.3C563.1 471.1 563.3 470.8 563.6 470.8H580.1Z" fill="#3021BF"></path>
                    <path d="M377.2 398.8H695.3C712.4 398.8 712.4 444.1 695.3 444.1H377.2" fill="#1F9455"></path>
                    <path d="M695.3 448H377.2C375 448 373.3 446.3 373.3 444.1C373.3 441.9 375 440.2 377.2 440.2H695.3C701.1 440.2 704.5 430.6 704.5 421.4C704.5 412.3 701.4 402.6 695.3 402.6H377.2C375 402.6 373.3 400.9 373.3 398.7C373.3 396.5 375 394.8 377.2 394.8H695.3C706.9 394.8 711.9 408.5 711.9 421.3C711.9 434.2 706.6 448 695.3 448Z" fill="#1F9455"></path>
                    <path d="M282.4 444.1C299.5 444.1 299.5 398.8 282.4 398.8H502.7C519.8 398.8 519.8 444.1 502.7 444.1H282.4Z" fill="#F5F5F7"></path>
                    <path d="M506.8 413.8H293.5C293 413.8 292.5 413.3 292.5 412.8C292.5 412.3 293 411.8 293.5 411.8H507C507.5 411.8 508 412.3 508 412.8C507.8 413.3 507.5 413.8 506.8 413.8Z" fill="#EBEBED"></path>
                    <path d="M506.8 431.1H293.5C293 431.1 292.5 430.6 292.5 430.1C292.5 429.6 293 429.1 293.5 429.1H507C507.5 429.1 508 429.6 508 430.1C507.8 430.6 507.5 431.1 506.8 431.1Z" fill="#EBEBED"></path>
                    <path d="M506.8 408H292.1C291.6 408 291.1 407.5 291.1 407C291.1 406.5 291.6 406 292.1 406H506.8C507.3 406 507.8 406.5 507.8 407C507.8 407.5 507.5 408 506.8 408Z" fill="#EBEBED"></path>
                    <path d="M506.8 419.5H294.7C294.2 419.5 293.7 419 293.7 418.5C293.7 418 294.2 417.5 294.7 417.5H506.8C507.3 417.5 507.8 418 507.8 418.5C507.8 419.1 507.5 419.5 506.8 419.5Z" fill="#EBEBED"></path>
                    <path d="M506.8 425.3H294.7C294.2 425.3 293.7 424.8 293.7 424.3C293.7 423.8 294.2 423.3 294.7 423.3H506.8C507.3 423.3 507.8 423.8 507.8 424.3C507.8 424.8 507.5 425.3 506.8 425.3Z" fill="#EBEBED"></path>
                    <path d="M506.8 436.9H292.1C291.6 436.9 291.1 436.4 291.1 435.9C291.1 435.4 291.6 434.9 292.1 434.9H506.8C507.3 434.9 507.8 435.4 507.8 435.9C507.8 436.4 507.5 436.9 506.8 436.9Z" fill="#EBEBED"></path>
                    <path d="M502.7 448H282.4C280.2 448 278.5 446.3 278.5 444.1C278.5 441.9 280.2 440.2 282.4 440.2H502.7C508.5 440.2 511.9 430.6 511.9 421.4C511.9 412.3 508.8 402.6 502.7 402.6H282.4C280.2 402.6 278.5 400.9 278.5 398.7C278.5 396.5 280.2 394.8 282.4 394.8H502.7C514.3 394.8 519.3 408.5 519.3 421.3C519.4 434.2 514.1 448 502.7 448Z" fill="#0ca750"></path>
                    <path d="M477.7 409V424.7C477.7 425.7 478.7 426.4 479.6 426.1L485.9 423.9L492.2 426.1C493.2 426.3 494.1 425.6 494.1 424.7V409C494.1 408.3 493.6 407.8 492.9 407.8H479.4C478.1 407.7 477.7 408.5 477.7 409Z" fill="#EBEBED"></path>
                    <path d="M478.9 427C478.4 427 477.9 426.8 477.5 426.5C476.8 426 476.5 425.3 476.5 424.6V409C476.5 407.8 477.5 406.8 478.7 406.8H492.2C493.4 406.8 494.4 407.8 494.4 409V424.7C494.4 425.4 493.9 426.1 493.4 426.6C492.7 427.1 492 427.1 491.2 426.8L485.4 424.9L479.6 426.8C479.6 427 479.1 427 478.9 427ZM478.9 408.7C478.7 408.7 478.7 408.9 478.7 408.9V424.6C478.7 424.8 478.9 424.8 478.9 425.1C478.9 425.1 479.1 425.3 479.4 425.1L485.7 422.9C485.9 422.9 486.2 422.9 486.4 422.9L492.7 425.1C492.9 425.1 492.9 425.1 493.2 425.1C493.2 425.1 493.4 424.9 493.4 424.6V409C493.4 408.8 493.2 408.8 493.2 408.8H478.9V408.7Z" fill="#EBEBED"></path>
                    <path d="M476.7 408.5V424.2C476.7 425.2 477.7 425.9 478.6 425.6L484.9 423.4L491.2 425.6C492.2 425.8 493.1 425.1 493.1 424.2V408.5C493.1 407.8 492.6 407.3 491.9 407.3H478.4C477.2 407 476.7 407.7 476.7 408.5Z" fill="#FF8A33"></path>
                    <path d="M478.1 426.3C477.6 426.3 477.1 426.1 476.7 425.8C476 425.3 475.7 424.6 475.7 423.9V408.2C475.7 407 476.7 406 477.9 406H491.4C492.6 406 493.6 407 493.6 408.2V423.9C493.6 424.6 493.1 425.3 492.6 425.8C491.9 426.3 491.2 426.3 490.4 426L484.6 424.1L478.8 426C478.6 426.3 478.4 426.3 478.1 426.3ZM484.6 422.2H484.8L491.1 424.4C491.3 424.4 491.3 424.4 491.6 424.4C491.6 424.4 491.8 424.2 491.8 423.9V408.2C491.8 408 491.6 408 491.6 408H478.1C477.9 408 477.9 408.2 477.9 408.2V423.9C477.9 424.1 478.1 424.1 478.1 424.4C478.1 424.4 478.3 424.6 478.6 424.4L484.9 422.2C484.4 422.2 484.6 422.2 484.6 422.2Z" fill="#FF8A33"></path>
                    <path d="M689.3 427.5H540.8C537.7 427.5 534.8 424.9 534.8 421.5C534.8 418.4 537.5 415.5 540.8 415.5H689.3C692.4 415.5 695.3 418.1 695.3 421.5C695.1 424.6 692.4 427.5 689.3 427.5Z" fill="#0ca750"></path>
                    <path d="M348.7 390.2H435C446.8 383.7 455.7 369.3 455.7 350.2L496.7 205H743L702 350.2C702 369.2 693.1 383.7 681.3 390.2H541" fill="#462BE2"></path>
                    <path d="M681.3 395H541C538.3 395 536.2 392.8 536.2 390.2C536.2 387.6 538.4 385.4 541 385.4H679.8C690.4 379.1 696.9 365.7 696.9 350.2C696.9 349.7 696.9 349.2 697.1 349L736.4 209.8H500.3L460.5 350.9C460.3 370.2 451.3 386.8 437.4 394.2C436.7 394.7 436 394.7 435 394.7H348.7C346 394.7 343.9 392.5 343.9 389.9C343.9 387.3 346.1 385.1 348.7 385.1H433.8C444.4 378.8 450.9 365.4 450.9 349.9C450.9 349.4 450.9 348.9 451.1 348.7L492.1 203.5C492.6 201.3 494.5 199.9 496.7 199.9H743C744.4 199.9 745.9 200.6 746.9 201.8C747.9 203 748.1 204.4 747.6 205.9L706.9 350.4C706.7 369.7 697.7 386.3 683.8 393.7C682.8 394.7 682 395 681.3 395Z" fill="#462BE2"></path>
                    <path d="M455 370.7C448.5 363.5 493.1 208.2 506.1 208.2H739.4L694.6 370L455 370.7Z" fill="#F5F5F7"></path>
                    <path d="M474.3 343.9C474.3 343.9 474 343.9 474.3 343.9C473.6 343.9 473.1 343.2 473.1 342.5C478.2 305.2 490.7 264.7 510.9 218.7C511.1 218 511.9 217.7 512.6 218C513.3 218.2 513.6 219 513.3 219.7C493.1 265.5 480.8 305.9 475.7 343C475.3 343.5 474.8 343.9 474.3 343.9Z" fill="#EBEBED"></path>
                    <path d="M481.8 343.9C481.8 343.9 481.5 343.9 481.8 343.9C481.1 343.9 480.6 343.2 480.6 342.5C485.7 304.9 498.2 264.5 518.4 218.7C518.6 218 519.4 217.7 520.1 218C520.8 218.2 521.1 219 520.8 219.7C500.6 265.2 488.3 305.7 483.2 343C482.7 343.5 482.2 343.9 481.8 343.9Z" fill="#EBEBED"></path>
                    <path d="M489.2 343.9C489.2 343.9 489 343.9 489.2 343.9C488.5 343.9 488 343.2 488 342.5C493.1 304.7 505.4 264.2 525.8 218.7C526 218 526.8 217.7 527.5 218C528.2 218.2 528.5 219 528.2 219.7C508 265.2 495.7 305.4 490.6 343C490.2 343.5 489.7 343.9 489.2 343.9Z" fill="#EBEBED"></path>
                    <path d="M496.7 343.9C496.5 343.9 496.5 343.9 496.7 343.9C496 343.9 495.5 343.2 495.5 342.5C500.6 305.2 513.3 263.5 533.3 218.7C533.5 218 534.3 217.7 535 218C535.7 218.2 536 219 535.7 219.7C515.7 264.2 503.2 305.7 498.1 343C497.7 343.5 497.2 343.9 496.7 343.9Z" fill="#EBEBED"></path>
                    <path d="M504.2 343.9C503.9 343.9 503.9 343.9 504.2 343.9C503.5 343.9 503 343.2 503 342.5C508.1 304.9 520.8 263.3 540.8 218.7C541 218 541.8 217.7 542.5 218C543.2 218.2 543.5 219 543.2 219.7C523.2 264 510.7 305.7 505.6 343C505.1 343.5 504.7 343.9 504.2 343.9Z" fill="#EBEBED"></path>
                    <path d="M511.6 343.9C511.4 343.9 511.4 343.9 511.6 343.9C510.9 343.9 510.4 343.2 510.4 342.5C515.5 304.7 528.2 263 548.2 218.5C548.4 217.8 549.2 217.5 549.9 218C550.6 218.2 550.9 219 550.6 219.7C530.6 264 517.8 305.4 513 343C512.6 343.5 512.1 343.9 511.6 343.9Z" fill="#EBEBED"></path>
                    <path d="M518.9 343.9C518.2 343.9 517.7 343.2 517.7 342.5C522.8 304.5 535.3 262.8 555.5 218.5C555.7 217.8 556.5 217.5 557.2 218C557.9 218.2 558.2 219 557.7 219.7C537.7 263.8 524.9 305.2 520.1 343C520.1 343.5 519.6 343.9 518.9 343.9Z" fill="#EBEBED"></path>
                    <path d="M526.3 343.9C525.6 343.9 525.1 343.2 525.1 342.5C530.2 304.5 542.7 262.8 562.9 218.5C563.1 217.8 563.9 217.5 564.6 218C565.3 218.2 565.6 219 565.1 219.7C545.1 263.5 532.3 304.9 527.5 343C527.6 343.5 527.1 343.9 526.3 343.9Z" fill="#EBEBED"></path>
                    <path d="M533.8 343.9C533.1 343.9 532.6 343.2 532.6 342.5C537.7 304.2 550.2 262.6 570.4 218.5C570.6 217.8 571.4 217.5 572.1 218C572.8 218.2 573.1 219 572.6 219.7C552.6 263.5 539.8 304.9 535 343C535 343.5 534.5 343.9 533.8 343.9Z" fill="#EBEBED"></path>
                    <path d="M541.3 343.9C540.6 343.9 540.1 343.2 540.1 342.5C543.7 313.4 551.7 283.7 564 251.7C564.2 251 565 250.7 565.4 251C566.1 251.2 566.4 252 566.1 252.4C553.8 284.2 546.1 313.6 542.5 342.5C542.5 343.5 542 343.9 541.3 343.9Z" fill="#EBEBED"></path>
                    <path d="M548.8 343.9C548.1 343.9 547.6 343.2 547.6 342.5C552.4 304 565.2 262.1 585.4 218.5C585.6 217.8 586.4 217.5 587.1 218C587.8 218.2 588.1 219 587.6 219.7C567.6 263 554.8 304.5 550 343C550 343.5 549.5 343.9 548.8 343.9Z" fill="#EBEBED"></path>
                    <path d="M556.2 343.9C555.5 343.9 555 343.2 555 342.5C559.8 303.7 572.6 262.1 592.8 218.5C593 217.8 593.8 217.5 594.5 218C595.2 218.2 595.5 219 595 219.7C575 262.8 562.2 304.5 557.4 343C557.4 343.5 557 343.9 556.2 343.9Z" fill="#EBEBED"></path>
                    <path d="M563.7 343.9C563 343.9 562.5 343.2 562.5 342.5C567.3 303.5 580.1 261.8 600.3 218.5C600.5 217.8 601.3 217.5 602 218C602.7 218.2 603 219 602.5 219.7C582.5 262.8 569.7 304.2 564.9 343C564.9 343.5 564.2 343.9 563.7 343.9Z" fill="#EBEBED"></path>
                    <path d="M571.2 343.9C570.5 343.9 570 343.2 570 342.5C574.8 303.5 587.6 261.6 607.8 218.5C608 217.8 608.8 217.5 609.5 218C610.2 218.2 610.5 219 610 219.7C590 262.6 577.2 304 572.4 343C572.4 343.5 571.7 343.9 571.2 343.9Z" fill="#EBEBED"></path>
                    <path d="M578.6 343.9C578.6 343.9 578.4 343.9 578.6 343.9C577.9 343.9 577.4 343.2 577.4 342.5C582.2 303.2 595 261.6 615.2 218.5C615.4 218 616.2 217.5 616.9 218C617.6 218.2 617.9 219 617.4 219.7C597.2 262.3 584.6 304 579.8 343C579.6 343.5 579.1 343.9 578.6 343.9Z" fill="#EBEBED"></path>
                    <path d="M586.1 343.9C586.1 343.9 585.9 343.9 586.1 343.9C585.4 343.9 584.9 343.2 584.9 342.5C589.7 303 602.5 261.4 622.7 218.5C622.9 217.8 623.7 217.5 624.4 218C625.1 218.2 625.4 219 624.9 219.7C604.7 262.3 592.1 303.7 587.3 343C587.1 343.5 586.6 343.9 586.1 343.9Z" fill="#EBEBED"></path>
                    <path d="M593.6 343.9C593.6 343.9 593.3 343.9 593.6 343.9C592.9 343.9 592.4 343.2 592.4 342.5C595.5 316 602.3 288.6 612.4 260.9C612.6 260.2 613.4 259.9 613.8 260.2C614.5 260.4 614.8 261.2 614.5 261.6C604.4 289.3 597.9 316.5 594.5 342.8C594.6 343.5 594.1 343.9 593.6 343.9Z" fill="#EBEBED"></path>
                    <path d="M601.1 343.9C600.8 343.9 600.8 343.9 601.1 343.9C600.4 343.9 599.9 343.2 599.9 342.5C604.7 302.8 617.5 261.1 637.7 218.5C637.9 218 638.7 217.5 639.4 218C639.9 218.2 640.4 219 639.9 219.7C619.7 261.8 607.1 303.5 602.3 343C602 343.5 601.5 343.9 601.1 343.9Z" fill="#EBEBED"></path>
                    <path d="M608.5 343.9C608.3 343.9 608.3 343.9 608.5 343.9C607.8 343.9 607.3 343.2 607.3 342.5C612.1 302.5 624.9 260.9 645.1 218.5C645.3 217.8 646.1 217.5 646.8 218C647.3 218.2 647.8 219 647.3 219.7C627.1 261.8 614.5 303.3 609.7 343C609.5 343.5 609 343.9 608.5 343.9Z" fill="#EBEBED"></path>
                    <path d="M615.8 343.9C615.1 343.9 614.6 343.2 614.6 342.5C619.4 302.5 632.2 260.6 652.4 218.5C652.6 218 653.4 217.5 654.1 218C654.6 218.2 655.1 219 654.6 219.7C634.3 261.6 621.8 303 617 343C617 343.5 616.5 343.9 615.8 343.9Z" fill="#EBEBED"></path>
                    <path d="M623.2 343.9C622.5 343.9 622 343.2 622 342.5C626.8 302.3 639.6 260.6 659.8 218.5C660 218 660.8 217.5 661.5 218C662 218.2 662.5 219 662 219.7C641.8 261.4 629.2 303 624.4 343C624.4 343.5 624 343.9 623.2 343.9Z" fill="#EBEBED"></path>
                    <path d="M630.7 343.9C630 343.9 629.5 343.2 629.5 342.5C634.3 302 646.9 260.4 667.3 218.5C667.5 218 668.3 217.8 669 218C669.5 218.2 670 219 669.5 219.7C649.3 261.4 636.5 302.8 631.9 342.7C631.9 343.5 631.4 343.9 630.7 343.9Z" fill="#EBEBED"></path>
                    <path d="M638.2 343.9C637.5 343.9 637 343.2 637 342.5C641.8 302 654.4 260.1 674.8 218.5C675 218 675.8 217.8 676.5 218C677 218.2 677.5 219 677 219.7C656.8 261.1 644 302.5 639.4 342.7C639.4 343.5 638.9 343.9 638.2 343.9Z" fill="#EBEBED"></path>
                    <path d="M645.6 343.9C644.9 343.9 644.4 343.2 644.4 342.5C649 301.8 661.8 260.1 682.2 218.5C682.4 218 683.2 217.5 683.9 218C684.4 218.2 684.6 219 684.4 219.7C664.2 261.1 651.4 302.5 646.8 342.7C646.9 343.5 646.4 343.9 645.6 343.9Z" fill="#EBEBED"></path>
                    <path d="M653.1 343.9C652.4 343.9 651.9 343.2 651.9 342.5C656.5 301.6 669.3 259.9 689.7 218.5C689.9 218 690.7 217.8 691.4 218C691.9 218.2 692.1 219 691.9 219.7C671.7 260.9 658.9 302.3 654.3 342.7C654.3 343.5 653.8 343.9 653.1 343.9Z" fill="#EBEBED"></path>
                    <path d="M660.6 343.9C659.9 343.9 659.4 343.2 659.4 342.5C664 301.6 676.8 259.9 697.2 218.5C697.4 218 698.2 217.8 698.9 218C699.4 218.2 699.6 219 699.4 219.7C679.2 260.6 666.4 302.1 661.8 342.7C661.8 343.5 661.3 343.9 660.6 343.9Z" fill="#EBEBED"></path>
                    <path d="M668.1 343.9C667.4 343.9 666.9 343.2 666.9 342.5C668.8 324.4 672.4 306.1 677.7 288.1C677.9 287.4 678.4 287.1 679.1 287.4C679.8 287.6 680.1 288.4 679.8 288.8C674.7 306.9 671.1 324.9 669.2 342.7C669.3 343.5 668.5 343.9 668.1 343.9Z" fill="#EBEBED"></path>
                    <path d="M737 208.1C727.1 213.9 712.9 243 701.1 283.7C678.2 362 679.6 354.7 692.4 362.9C704.7 370.6 700.1 364.3 700.1 364.3L740.8 207.8L737 208.1Z" fill="#DDDDDD"></path>
                    <path d="M310.2 390.2C310.2 390.2 322.5 377.4 327.8 366.8C328.5 365.6 330 364.6 331.4 364.9C343.7 366.3 398.9 372.1 462 367.8C500.6 365.2 630 346.4 687.8 359.4C695 361.1 698.6 369 695.3 375.5C691.9 382 687.1 388.7 681.3 390.2H310.2Z" fill="white"></path>
                    <path d="M547.3 363.4C547.1 373 543.7 386 542.7 390.1H681.3C687.3 388.7 692.1 381.9 695.3 375.4C698.7 368.9 694.8 360.7 687.6 359.3C655.1 352.1 600.4 354.7 551.4 359.1C549.2 359.1 547.6 361 547.3 363.4Z" fill="#DDDDDD"></path>
                    <path d="M612.9 395H294.7C292 395 289.9 392.8 289.9 390.2C289.9 387.6 292.1 385.4 294.7 385.4H612.8C615.5 385.4 617.6 387.6 617.6 390.2C617.7 392.8 615.5 395 612.9 395Z" fill="#5E4EF9"></path>
                    <path d="M681.3 395H541C538.3 395 536.2 392.8 536.2 390.2C536.2 387.6 538.4 385.4 541 385.4H679.8C690.4 379.1 696.9 365.7 696.9 350.2C696.9 349.7 696.9 349.2 697.1 349L738.1 203.8C738.8 201.2 741.5 199.7 744.1 200.4C746.8 201.1 748.2 203.8 747.5 206.4L706.8 350.9C706.6 370.2 697.6 386.8 683.7 394.2C682.8 394.7 682 395 681.3 395Z" fill="#462BE2"></path>
                    <path d="M401.7 502.6C395.9 502.6 389.9 495.9 388.4 487.7L370.3 395.2C368.6 387 372 380.3 377.8 380.3C383.6 380.3 389.6 387 391.1 395.2L409.2 487.7C410.9 495.9 407.5 502.6 401.7 502.6Z" fill="#C0C0CE"></path>
                    <path d="M372.8 502.6C367 502.6 360.5 495.9 358.1 487.7L330.9 395.2C328.5 387 331.1 380.3 336.9 380.3C342.7 380.3 349.2 387 351.6 395.2L378.8 487.7C381.3 495.9 378.6 502.6 372.8 502.6Z" fill="#C0C0CE"></path>
                    <path d="M402 246.2C403.4 257.3 403.7 268.1 403.4 279.2C403.2 284.7 402.7 290.3 401.7 296.1C401.2 299 400.5 301.9 399.5 304.8C398.5 307.7 397.3 310.6 396.1 313.2C393.4 318.5 390.1 323.3 386.5 327.9C382.9 332.2 378.5 336.3 374 339.9C369.4 343.5 364.4 346.6 358.8 348.8C353.3 351 347.2 352.4 341 351.9C338.6 351.7 336.9 349.7 336.9 347.3C337.1 345.1 338.8 343.4 340.8 343.4C345.4 342.9 350 341.5 354.1 339.1C358.2 336.9 362.3 333.8 365.9 330.7C372.9 324 379.2 315.8 383 307.1C384 304.9 384.7 302.8 385.2 300.6C385.7 298.4 386.2 296 386.6 293.6C387.3 288.8 387.6 283.7 387.8 278.4C388 273.3 388 268 387.8 263C387.8 257.9 387.6 252.4 387.3 247.6V247.4C387.1 243.3 390.2 239.9 394.3 239.9C398.1 239.7 401.5 242.3 402 246.2Z" fill="#EF9D7F"></path>
                    <path d="M399.6 229.3C404.4 228.1 407.6 243.5 409.5 251.7C410.9 257.5 411.7 270.2 411.9 277.2C411.9 279.8 410 281.8 407.3 281.5L387.1 279.8C384.9 279.6 383.2 277.9 383.2 275.7C382.7 265.2 382.5 233.6 399.6 229.3Z" fill="#3021BF"></path>
                    <path d="M352.8 477.1C355.7 483.1 360.8 496.6 360.8 496.6L369.2 494.4C369.2 494.4 365.3 478 363.7 473.2L352.8 477.1Z" fill="#FFBEA4"></path>
                    <path d="M386.3 483.8C388.5 489.8 392.1 503.3 392.1 503.3L399.8 501.1C399.8 501.1 397.4 484.7 396.2 479.9L386.3 483.8Z" fill="#FFBEA4"></path>
                    <path d="M461.3 241.4C458.9 229.8 448.5 221.4 436.7 221.4C436.5 221.4 436.5 221.4 436.2 221.4L414 221.9C412.8 221.9 411.8 222.1 410.9 222.6L398.6 229.1C389.7 233.7 385.1 243.8 387.3 253.4C397.9 302 396.5 341.8 396.5 342.3C396.5 344.5 397.2 346.4 398.9 347.8C400.3 349 402 349.7 403.7 349.7C403.9 349.7 404.2 349.7 404.4 349.7L460.6 343.4C464 342.9 466.9 340.3 467.1 336.7C470.2 293.4 464.6 258.5 461.3 241.4Z" fill="#462BE2"></path>
                    <path d="M415 243.5C407.5 243.5 401.3 237.2 401.3 229.8C401.3 222.3 407.6 216.1 415 216.1C422.5 216.1 428.7 222.4 428.7 229.8C428.5 237.3 422.5 243.5 415 243.5ZM415 216.6C407.8 216.6 402 222.4 402 229.6C402 236.8 407.8 242.6 415 242.6C422.2 242.6 428 236.8 428 229.6C428 222.6 422.2 216.6 415 216.6Z" fill="white"></path>
                    <path d="M415.5 257.5C414.3 257.5 413.3 257 412.6 255.8C411.9 254.8 411.4 253.4 411.4 251.9C411.4 248.8 413.1 246.4 415.5 246.1C416.7 246.1 417.7 246.6 418.4 247.8C419.1 248.8 419.6 250.2 419.6 251.7C419.6 253.1 419.4 254.6 418.4 255.6C417.7 257 416.7 257.5 415.5 257.5ZM415.2 246.9C413.3 246.9 411.6 249.3 411.6 252C411.6 253.4 412.1 254.6 412.8 255.6C413.5 256.6 414.2 257 415.2 257C416.2 257 416.9 256.5 417.6 255.6C418.3 254.6 418.6 253.4 418.6 252C418.6 250.6 418.1 249.4 417.4 248.4C417.2 247.4 416.2 246.9 415.2 246.9Z" fill="white"></path>
                    <path d="M417.4 271.5C415.2 271.5 413.3 269.1 413.3 266C413.3 264.6 413.8 263.1 414.5 262.1C415.2 260.9 416.2 260.4 417.4 260.4C418.6 260.4 419.6 260.9 420.3 262.1C421 263.1 421.5 264.5 421.5 266C421.5 267.5 421.3 268.9 420.3 269.9C419.6 270.7 418.6 271.5 417.4 271.5ZM417.4 260.9C417.2 260.9 417.2 260.9 417.4 260.9C416.4 260.9 415.5 261.4 415 262.3C414.3 263.3 414 264.5 414 265.9C414 268.5 415.7 271 417.6 271C418.6 271 419.3 270.5 420 269.6C420.7 268.6 421 267.4 421 266C421 264.6 420.5 263.4 419.8 262.4C419.1 261.3 418.1 260.9 417.4 260.9Z" fill="white"></path>
                    <path d="M403.9 347.3H397.4C393.1 347.3 389 347.5 384.6 347.8C376.2 348.3 367.5 349 358.8 350.2C350.1 351.4 341.4 353.1 332.8 355.5C324.1 357.9 315.2 361.3 306.3 366.3L304.6 367.3C303.9 367.8 302.9 368.3 302.2 369C295.9 374.3 295.2 383.7 300.5 389.9C301 390.4 301.7 391.3 302.2 392.1L303.9 394.7C305.1 396.4 306.3 398.3 307.5 400C309.9 403.6 312.1 407.5 314.5 411.1C319.1 418.6 323.4 426.5 327.5 434.2C331.6 442.1 335.7 450.1 339.6 458.3C343.5 466.5 347.1 474.7 350.7 482.9L365.6 477.8C363.4 468.9 361 460 358.4 451.1C355.7 442.2 353.1 433.3 350.2 424.6C347.3 415.7 344.2 407 340.6 398.4C339.4 395.5 338.2 392.4 337 389.5C338.4 389 340.1 388.5 341.6 388.1C348.3 386.2 355.8 384.7 363.1 383.8C370.6 382.8 378 382.1 385.8 381.6C389.7 381.4 393.5 381.4 397.4 381.4H403.2C406.1 381.4 408.7 379 408.7 376.1L410.1 347.9C408 347.3 406.1 347.3 403.9 347.3Z" fill="#17203A"></path>
                    <path d="M470.9 353.1L469.5 335.3C469.3 333.4 468.3 331.4 466.8 330.2C465.4 329 463.4 328.3 461.5 328.5L401.5 335.2C397.6 335.7 395 338.8 395 342.7L395.2 350.2C389.9 351.4 384.4 352.8 378.8 354.3C370.4 356.7 361.7 359.6 353 363.5L351.6 364C351.1 364.2 350.6 364.5 349.9 364.7C342.7 368.8 340.3 378.2 344.4 385.4C344.9 386.1 345.4 387.1 345.8 388L347.2 390.9L350.1 396.9C352 401 353.7 405.1 355.6 409.4C359.2 417.8 362.6 426.3 365.7 434.9C369.1 443.6 372 452.2 375.1 460.9C378 469.6 380.9 478.5 383.8 487.4L399.5 483.8C398.1 474.4 396.6 465.3 395.2 455.9C393.5 446.5 391.8 437.4 389.9 428C388 418.6 385.8 409.5 383.6 400.1C382.6 396.2 381.7 392.4 380.7 388.8C383.1 388.1 385.8 387.1 388.2 386.4C395.7 384.2 403.4 382.5 411.1 380.9C418.8 379.2 426.8 377.8 434.7 376.6C437.1 376.1 439.3 375.9 441.7 375.6L451.1 375.1C453.5 374.9 455.9 374.4 458.1 373.4C458.3 373.4 458.3 373.4 458.6 373.4V373.2C461.3 372 463.9 370.3 465.8 367.9C469.5 364.2 471.4 358.9 470.9 353.1Z" fill="#252F5A"></path>
                    <path d="M395 331.4C395 334 395 338.9 394.8 341.8C394.8 342 395 342.5 395.5 342.5C401.8 342.3 450.2 339.6 469.2 335.8C469.4 335.8 469.7 335.6 469.7 335.3C469.7 334.1 469.7 330 469.2 324.9C469 323 467.3 321.5 465.3 322C454.7 323.4 421.9 327.8 396.6 329.7C395.7 329.7 395 330.5 395 331.4Z" fill="#3021BF"></path>
                    <path d="M414.3 238.7C411.9 238.7 409.7 238 407.8 236.3C394.8 224.5 393.6 206.2 393.3 204C393.1 198.7 397.2 194.1 402.5 193.9C407.8 193.7 412.4 197.8 412.6 203C412.8 206.4 414.8 216.5 420.6 222C424.5 225.6 424.9 231.6 421.3 235.7C419.3 237.7 416.9 238.7 414.3 238.7Z" fill="#FFBEA4"></path>
                    <path d="M409.5 213.9C409.5 213.9 384.7 219.7 401.3 232C415.5 242.6 419.8 219.7 409.5 213.9Z" fill="#DD8B66"></path>
                    <path d="M409 193.2C409 194.9 409.2 197.1 409.5 198.7L410 204.5C410.2 206.4 410.5 208.1 410.7 210C410.9 211.7 411.2 213.4 411.4 214.8L411.6 216C413.5 225.4 407.3 234.3 398.1 236.2C389.9 237.9 382 233.3 378.8 225.8C377.8 223.2 376.9 221 376.1 218.6C375.4 216.4 374.7 214 374.2 211.9C373.5 209.7 373 207.6 372.5 205.4C372 203.2 371.5 201.1 370.8 198.7V198.2C368.4 187.8 375.1 177.5 385.5 175.1C395.9 172.7 406.2 179.4 408.6 189.8C408.7 190.8 409 192 409 193.2Z" fill="#FFBEA4"></path>
                    <path d="M391.4 208.8C391.6 209.5 392.4 210 393.3 209.8C394 209.6 394.5 208.8 394.3 207.9C394.1 207.2 393.3 206.7 392.4 206.9C391.6 207.4 391.1 208.1 391.4 208.8Z" fill="#252F5A"></path>
                    <path d="M375.7 213.2C375.9 213.9 376.7 214.4 377.6 214.2C378.3 214 378.8 213.2 378.6 212.3C378.4 211.6 377.6 211.1 376.7 211.3C376 211.5 375.5 212.5 375.7 213.2Z" fill="#252F5A"></path>
                    <path d="M388 203.8L387.5 202.8C387.7 202.6 393 199.7 397.4 202.3L396.9 203C393.1 200.9 388 203.8 388 203.8Z" fill="#252F5A"></path>
                    <path d="M395.5 224L395 223.3C398.4 220.9 400.5 217 400.5 217L401.5 217.5C401 217.5 399.1 221.6 395.5 224Z" fill="#252F5A"></path>
                    <path d="M370.9 207.9L369.9 207.7C369.9 207.7 371.3 202.9 376.4 203.6V204.6C372.1 203.8 371.1 207.6 370.9 207.9Z" fill="#252F5A"></path>
                    <path d="M387.8 221.4H383.5V220.9C384.2 217 383.7 213.2 382.1 209.3L383.1 208.8C384.8 212.7 385.3 216.5 384.8 220.4H387.9V221.4H387.8Z" fill="#DD8B66"></path>
                    <path d="M415.7 193.4C415.5 185.2 415.5 181.6 411.1 181.4L414.5 179.5C414.5 179.5 412.8 178.8 411.1 179.7C412.5 176.8 410.9 174.6 410.9 174.6L409.2 180.1C406.5 174.1 398.4 168.8 385.6 174.8C374 180.3 366.3 180.1 366.3 180.1C366.3 180.1 367.7 181.8 370.6 183.2C365.8 183.7 361 183.2 361 183.2C362.2 185.4 364.4 187.1 367 188C363.1 188.2 360.3 188.2 360.3 188.2C362 191.1 365.4 192.8 369.2 193.3C366.3 194.7 364.4 195.5 364.4 195.5C370.2 200.8 385.1 196.7 393.3 189C398.1 198.2 406.3 208.5 409.9 208.3C415.7 208.4 416 206.4 415.7 193.4Z" fill="#252F5A"></path>
                    <path d="M402.2 205.7C404.1 199.7 407.5 196.3 411.1 201.1C416.6 207.8 410.6 218.9 406.5 215.1C402.7 211.3 402.2 205.7 402.2 205.7Z" fill="#FFBEA4"></path>
                    <path opacity="0.2" d="M395.5 484.8C386.1 434 375 397.4 370.7 383.9C369.7 380.8 371.2 377.4 374.3 376.2C408.3 362.2 456.5 356.9 457 356.9V357.4C456.5 357.4 408.3 362.7 374.6 376.7C371.9 377.9 370.5 380.8 371.5 383.7C375.8 397.2 386.9 433.8 396.3 484.6L395.5 484.8Z" fill="white"></path>
                    <path d="M398.6 495.2C396.7 497.4 393.3 499.3 391.4 500C390.9 500.2 390.4 500.7 390.4 501.2C389.4 504.8 385.1 518.1 380 521.7C374.5 525.8 388.4 525.6 393 518.8C397.6 511.8 401 507.7 404.1 505.3C406.8 503.4 405.3 499 401.2 495.4C400.5 494.2 399.3 494.4 398.6 495.2Z" fill="#3932D6"></path>
                    <path d="M368 491.1C365.6 492.8 361.7 493.7 359.8 494C359.3 494 358.8 494.5 358.6 495C356.9 498.4 349.4 510.2 343.9 512.6C337.6 515.2 351.4 518.4 357.2 512.6C363.2 506.8 367.3 503.7 371.2 502C374.1 500.6 373.9 496.2 370.7 491.6C369.9 490.6 369 490.6 368 491.1Z" fill="#3021BF"></path>
                    <path d="M385.8 505.3C385.3 505.3 384.6 505.1 384.1 504.8C383.6 504.6 383.4 504.1 383.6 503.6C383.6 502.6 384.6 501.7 385.8 501.2C387.5 500.5 389.2 501 390.9 502.2V502.4V502.6C390.7 502.9 388.2 505.3 385.8 505.3ZM387.5 501.7C387 501.7 386.5 501.9 386.1 501.9C384.9 502.4 384.4 503.1 384.2 503.8C384.2 504 384.2 504.3 384.4 504.5C386.3 505.7 389.2 503.5 390.2 502.8C389.2 501.9 388.2 501.7 387.5 501.7Z" fill="white"></path>
                    <path d="M390.7 502.9C390.5 502.9 387.1 502.7 385.4 501C384.9 500.5 384.7 499.8 384.7 498.8C384.7 497.8 385.4 497.4 386.1 497.1C387.5 497.1 390 498.8 390.7 502.4C390.9 502.6 390.9 502.6 390.7 502.9C390.9 502.9 390.7 502.9 390.7 502.9ZM386.3 497.8C385.6 497.8 385.3 498.3 385.3 498.8C385.3 499.5 385.5 500 385.8 500.5C386.8 501.7 389.2 502.2 390.1 502.2C389.5 499.5 387.5 497.8 386.3 497.8Z" fill="white"></path>
                    <path d="M353.8 498.5C353.1 498.5 352.1 498.3 351.6 497.8C351.1 497.6 351.1 497.1 351.4 496.6C351.6 495.6 352.8 494.9 354.1 494.7C355.8 494.2 357.5 494.9 358.9 496.6V496.8C358.9 496.8 358.9 497 358.7 497C358.4 496.8 356.2 498.5 353.8 498.5ZM354.7 494.9C354.5 494.9 354.2 494.9 354 494.9C352.8 495.1 352.1 495.9 351.8 496.3C351.8 496.5 351.8 496.8 352 497C353.7 498.7 357.1 496.8 357.8 496.3C356.9 495.2 355.7 494.9 354.7 494.9Z" fill="white"></path>
                    <path d="M358.4 496.8C358.2 496.8 354.8 496.1 353.6 493.9C353.1 493.2 353.1 492.5 353.4 491.7C353.6 490.7 354.4 490.3 355.1 490.5C356.5 490.7 358.7 492.9 359 496.5C358.6 496.6 358.6 496.6 358.4 496.8C358.6 496.8 358.4 496.8 358.4 496.8ZM354.7 491.1C354.2 491.1 354 491.6 353.7 492.1C353.5 492.8 353.7 493.3 353.9 493.8C354.9 495.2 357 496 358 496.2C357.9 493 356 491.3 354.7 491.1Z" fill="white"></path>
                    <path d="M468 267.1C465.6 255.8 462 245.4 457.2 234.8C455.8 231.4 451.7 229.7 448 230.9C444.1 232.3 442.5 236.4 443.7 240.3V240.5C445.4 245.3 447.3 250.4 448.8 255.2C450.5 260.3 451.7 265.1 452.9 270.1C453.9 275.2 454.8 280 455.1 284.8C455.4 289.6 454.9 294.2 453.4 297.1C453.2 297.6 452.4 299 451.7 300L449.8 303.4C448.4 305.6 446.9 307.7 445.5 309.9C442.6 314 439.2 317.8 435.9 321.5C428.9 328.5 420.5 333.3 411.1 334.7C408 334.2 403.9 333.7 399.3 332.3C398.6 332.1 397.6 332.1 396.9 332.3C392.3 333.3 387.3 342.7 388.5 347.2C389.2 350.1 393.3 347.9 397.7 347.4C407.3 346 418.7 346 418.9 343.8C418.9 343.6 418.9 343.3 418.9 342.8C422.5 342.3 425.9 341.4 429.3 340.2C434.8 337.8 440.1 334.7 444.7 330.8C449.3 327.2 453.4 322.9 457 318.3C458.9 316.1 460.6 313.7 462.1 311.6L464.5 308C465.2 306.8 465.9 305.8 466.9 303.9C468.6 300.5 469.6 297.2 470 293.8C470.5 290.7 470.7 287.3 470.5 284.4C470.2 278.7 469.5 272.9 468 267.1Z" fill="#FFBEA4"></path>
                    <path d="M442.5 222.1C437.7 221.6 440.6 238.5 441.1 246.9C441.6 255.3 444.2 271.2 444.2 271.2L468.8 267.1C470.5 266.9 471.7 265.2 471.5 263.5C469.7 253.6 463 224.3 442.5 222.1Z" fill="#462BE2"></path>
                    <path d="M443.7 271.2C443.7 271 441 255.3 440.6 246.9C440.6 245.9 440.6 245.2 440.4 244C440.2 239.9 439.9 235.1 439.9 231H440.6C440.4 235.1 440.8 240.2 441.1 244C441.1 245 441.1 245.9 441.3 246.9C441.8 255.3 444.4 271 444.4 271.2H443.7Z" fill="white"></path>
                    <path d="M381.5 485L383.2 491.3L402.2 488.2L401 480.3L381.5 485Z" fill="#37477C"></path>
                    <path d="M347.3 478.3L349.2 484.6L368 480.7L366.8 473L347.3 478.3Z" fill="#252F5A"></path>
                    <path d="M425.8 179.7H425.1V193.7H425.8V179.7Z" fill="white"></path>
                    <path d="M425.4 195.6C425.2 195.6 424.9 195.6 424.9 195.6C424.4 195.4 424.2 195.1 423.9 194.6C423.7 194.1 423.7 193.6 423.9 193.4C424.1 192.9 424.4 192.7 424.9 192.4C425.4 192.1 425.9 192.2 426.1 192.4C426.6 192.6 426.8 192.9 427.1 193.4C427.3 193.9 427.3 194.4 427.1 194.6C426.9 195.1 426.6 195.3 426.1 195.6C425.8 195.4 425.6 195.6 425.4 195.6ZM425.4 192.7C425.2 192.7 425.2 192.7 424.9 192.7C424.7 192.9 424.4 192.9 424.4 193.4C424.4 193.6 424.4 193.9 424.4 194.4C424.6 194.6 424.6 194.9 425.1 194.9C425.3 194.9 425.6 194.9 426.1 194.9C426.3 194.7 426.6 194.7 426.6 194.2C426.6 194 426.6 193.7 426.6 193.2C426.4 193 426.4 192.7 425.9 192.7C425.6 192.7 425.6 192.7 425.4 192.7Z" fill="white"></path>
                    <path d="M413.1 194.2C408.3 194.2 400.8 192.5 393.6 189.9C382.5 186 371.9 179.8 373.1 176.4L376.2 167.5L376.7 167.7L373.8 176.6C372.8 179 380.8 184.8 393.8 189.4C406.8 194 416.7 194.7 417.4 192.3L420.5 183.4L421 183.6L417.9 192.5C417.6 193.7 415.7 194.2 413.1 194.2Z" fill="white"></path>
                    <path d="M434.5 180.9C434.5 180.9 434.3 180.9 434.5 180.9L400.5 177.3C399.1 177.1 397.6 176.6 396.4 175.9L368 157.1C367 156.6 367 155.7 367.3 154.9C367.5 154.2 368.3 153.5 369.2 153.7L402.9 157.3C404.3 157.5 405.8 158 407 158.7L435.4 177.5C436.4 178 436.4 178.9 436.1 179.7C436 180.4 435.5 180.9 434.5 180.9ZM369 154.4C368.3 154.4 368 154.9 367.8 155.4C367.6 155.9 367.8 156.4 368.3 156.8L396.7 175.6C397.9 176.3 399.4 176.8 400.6 177L434.3 180.6C435 180.6 435.5 180.1 435.7 179.9C435.9 179.4 435.7 178.9 435.2 178.5L406.8 159.7C405.6 159 404.1 158.5 402.9 158.3L369 154.4Z" fill="white"></path>
                    <path d="M427.3 176.8L401.8 174.2C400.4 174 398.9 173.5 397.7 172.8L383 163.2L383.2 162.7L397.9 172.3C399.1 173 400.6 173.5 401.8 173.7L427.3 176.3V176.8Z" fill="white"></path>
                    <path d="M417.9 345.1C417.2 345.1 416.7 344.4 416.7 343.9C416.9 341.3 416.5 339.3 415.3 338.1C414.1 336.9 411.9 336.2 408.6 336.2C407.9 336.2 407.4 335.7 407.4 335C407.4 334.3 407.9 333.8 408.6 333.8C412.7 333.8 415.3 334.8 417 336.4C418.7 338.1 419.2 340.7 419.2 344.1C419.1 344.7 418.6 345.1 417.9 345.1Z" fill="#252F5A"></path>
                    <path d="M420.1 334.8C420.1 336 417.2 337 413.6 337.4C410 337.6 406.9 337.2 406.6 336V335L420.1 333.8V334.8Z" fill="#F5F5F7"></path>
                    <path d="M420.1 333.8C420.1 335 417.2 336 413.6 336.4C410 336.6 406.9 336.2 406.6 335C406.6 333.8 409.5 332.8 413.1 332.4C416.7 332.1 419.8 332.6 420.1 333.8Z" fill="#252F5A"></path>
                    <path d="M418.4 334.1C418.4 334.8 416.2 335.5 413.3 335.8C410.4 336 408 335.8 408 335.1C408 334.4 410.2 333.7 413.1 333.4C416 333.1 418.4 333.3 418.4 334.1Z" fill="#F5F5F7"></path>
                    <path d="M287.3 362.2C287.5 364.4 289.7 366.1 292.1 365.8L432.1 345.3C434.3 345.1 436 342.9 435.7 340.5L287.3 362.2Z" fill="#23D87D"></path>
                    <path d="M386.6 347.8C387.3 350.2 389.5 351.7 391.9 351.2L431.7 345.4C433.9 345.2 435.6 343 435.3 340.6L386.6 347.8Z" fill="#16B260"></path>
                    <path d="M384.6 349.5L291.3 363.2C287.2 363.7 282.9 361 281.7 357.2L262.9 295.1C261.7 291.2 264.1 287.4 268 286.9L361.3 273.2C365.4 272.7 369.7 275.4 370.9 279.2L389.7 341.3C390.9 345.4 388.7 349 384.6 349.5Z" fill="#23D87D"></path>
                    <path d="M382.5 350L289.2 363.5C285.1 364 280.8 361.3 279.6 357.5L260.8 295.4C259.6 291.5 262 287.7 265.9 287.2L359.4 273.5C363.5 273 367.8 275.7 369 279.5L387.8 341.6C389 345.6 386.6 349.2 382.5 350Z" fill="#0ca750"></path>
                    <path d="M287.7 361.5C285 361.5 282.4 359.6 281.7 357.2L262.9 295.1C262.4 293.7 262.7 292.5 263.4 291.2C264.1 290 265.3 289.3 266.8 289L360.1 275.3C363 274.8 366.1 276.7 366.8 279.6L385.6 341.7C386.1 343.1 385.8 344.6 385.1 345.6C384.4 346.8 383.2 347.5 381.7 347.8L288.4 361.5C288.2 361.5 288 361.5 287.7 361.5ZM288.5 360.8V361V360.8L381.8 347.1C383 346.9 384 346.4 384.7 345.4C385.4 344.4 385.4 343.2 385.2 342L366.4 279.9C365.7 277.3 362.8 275.6 360.4 276L267 289.8C265.8 290 264.8 290.5 264.1 291.5C263.4 292.5 263.4 293.7 263.6 294.9L282.4 357C283.2 359.6 285.8 361.3 288.5 360.8Z" fill="white"></path>
                    <path d="M273.3 255.8C263.2 255.8 254.7 247.6 254.7 237.3C254.7 227.2 262.9 218.8 273.3 218.8C283.4 218.8 291.9 227 291.9 237.3C291.8 247.4 283.6 255.8 273.3 255.8ZM273.3 219.4C263.4 219.4 255.5 227.3 255.5 237.2C255.5 247.1 263.5 255 273.3 255C283.2 255 291.1 247.1 291.1 237.2C291.1 227.4 283.2 219.4 273.3 219.4Z" fill="#33FF9D"></path>
                    <path d="M258.8 169.1C258.8 174.6 254.2 179 248.9 179C243.6 179 238.8 174.7 238.8 169.1C238.8 163.6 243.4 159.2 248.7 159.2C254 159.2 258.8 163.6 258.8 169.1Z" fill="white"></path>
                    <path d="M761.1 271.7C755.3 271.7 750.7 267.1 750.7 261.3C750.7 255.5 755.3 250.9 761.1 250.9C766.9 250.9 771.5 255.5 771.5 261.3C771.2 267.1 766.6 271.7 761.1 271.7ZM761.1 251.7C755.8 251.7 751.5 256 751.5 261.3C751.5 266.6 755.8 270.9 761.1 270.9C766.4 270.9 770.7 266.6 770.7 261.3C770.7 256 766.4 251.7 761.1 251.7Z" fill="#FBD051"></path>
                    <path d="M469.7 656.3C469.7 659.4 467 662.1 463.9 662.1C460.8 662.1 458.1 659.5 458.1 656.3C458.1 653.1 460.8 650.5 463.9 650.5C467 650.5 469.7 653.1 469.7 656.3Z" fill="#252F5A"></path>
                    <path d="M657.2 154.4L647.6 171H666.6L657.2 154.4Z" fill="#FBD051"></path>
                    <path d="M332.8 248.8L332.6 248.3L327.5 229.3L347 234.6L346.5 235.1L332.8 248.8ZM328.2 230.3L333 247.9L345.8 235.1L328.2 230.3Z" fill="#FFA76C"></path>
                    <path d="M758.7 297.3L747.1 308.9L758.7 320.5L770.3 308.9L758.7 297.3Z" fill="#F8F9FA"></path>
                    <path d="M756.3 156.4L756.1 155.9L782.1 129.9L782.6 130.1L756.3 156.4Z" fill="#33FF9D"></path>
                    <path d="M242.3 356.7L242 357L268.1 383.1L268.4 382.8L242.3 356.7Z" fill="#FFA76C"></path>
                    <path d="M588.6 653L588.1 653.5L614.2 679.6L614.7 679.1L588.6 653Z" fill="#252F5A"></path>
                    <path d="M709.4 662C707.5 661.5 706.2 660.2 706 658.2L646.2 344.8C645.8 342.4 647.4 339.8 649.8 339.3C652.2 338.9 654.8 340.5 655.3 342.9L714.8 656.2C715.2 658.6 713.6 661.2 711.2 661.7C710.7 662 710 662.2 709.4 662Z" fill="#17203A"></path>
                    <path d="M593.7 393.2C593.8 392.9 593.9 392.6 593.9 392.3C593.8 392.9 593.7 393.2 593.7 393.2ZM593.2 394.1C593.2 394.1 593.3 393.8 593.7 393.5C593.3 393.8 593.3 393.8 593.2 394.1ZM586.6 385.5C585.9 388.3 587.1 391.9 589.2 394.1C590.3 395 591.6 395.3 592.7 394.9L592.3 395.1L658.9 374.3C659.6 374.1 660.5 373.3 660.8 371.8C660.9 371.5 661 371.2 661 370.9L661.1 370.6C661.2 370.3 661.2 370.3 661.3 370C661.3 370 661.3 370 661.4 369.7L661.5 369.4L661.6 369.1L661.7 368.8C661.7 368.8 661.8 368.5 661.5 368.4C661.5 368.4 661.6 368.1 661.3 368C661.3 368 661.4 367.7 661.1 367.6L660.9 367.2L660.7 366.8C660.7 366.8 660.7 366.8 660.5 366.4C660.5 366.4 660.5 366.4 660.3 366L660.1 365.6C660.1 365.6 659.8 365.5 659.9 365.2C659.7 364.8 659.3 364.7 659.1 364.3C658.8 364.2 658.9 363.9 658.5 363.8C658.5 363.8 658.5 363.8 658.2 363.7C658.2 363.7 658.2 363.7 657.9 363.6L657.6 363.5C657.6 363.5 657.6 363.5 657.3 363.4L657 363.3L656.7 363.2C656.7 363.2 656.7 363.2 656.4 363.1C656.4 363.1 656.4 363.1 656.1 363L589.1 382.7C587.5 383.1 586.9 383.9 586.6 385.5ZM590.7 383.5C590.4 383.4 590.4 383.4 590.7 383.5C590.4 383.4 590.4 383.4 590.7 383.5ZM589.2 382.8C589.2 382.8 588.9 382.7 589.2 382.8C588.9 382.7 589.2 382.8 589.2 382.8ZM592.7 394.6L593.1 394.4C592.8 394.3 592.7 394.6 592.7 394.6Z" fill="#17203A"></path>
                    <path d="M603.1 443.4C603.2 443.1 603.2 442.8 603.3 442.5C603.6 442.9 603.5 443.2 603.1 443.4ZM602.9 444.4C602.9 444.4 603 444.1 603.4 443.8C603 444.1 603 444.1 602.9 444.4ZM596.3 435.8C595.6 438.6 596.8 442.2 598.9 444.4C600 445.3 601.3 445.6 602.4 445.2L602 445.4L668.5 424.9C669.2 424.7 670.1 423.9 670.4 422.4C670.5 422.1 670.6 421.8 670.6 421.5L670.7 421.2C670.8 420.9 670.8 420.9 670.9 420.6C670.9 420.6 670.9 420.6 671 420.3L671.1 420L671.2 419.7L671.3 419.4C671.3 419.4 671.4 419.1 671.1 419C671.1 419 671.2 418.7 670.9 418.6C670.9 418.6 671 418.3 670.7 418.2L670.5 417.8L670.3 417.4C670.3 417.4 670.3 417.4 670.1 417C670.1 417 670.1 417 669.9 416.6L669.7 416.2C669.7 416.2 669.4 416.1 669.5 415.8C669.3 415.4 668.9 415.3 668.7 414.9C668.4 414.8 668.5 414.5 668.1 414.4C668.1 414.4 668.1 414.4 667.8 414.3C667.8 414.3 667.8 414.3 667.5 414.2L667.2 414.1C667.2 414.1 667.2 414.1 666.9 414L666.6 413.9L666.3 413.8C666.3 413.8 666.3 413.8 666 413.7C666 413.7 666 413.7 665.7 413.6L598.8 433C597.2 433.4 596.7 434.2 596.3 435.8ZM600.1 433.7C600.1 433.7 600.2 433.4 600.1 433.7C600.2 433.4 600.2 433.4 600.1 433.7ZM599.6 433.2C599.6 433.2 599.2 433.2 599.6 433.2C599.2 433.2 599.2 433.2 599.6 433.2ZM598.9 433.1C598.6 433 598.6 433 598.9 433.1C598.6 433 598.6 433 598.9 433.1ZM602.1 444.9L602.5 444.7C602.5 444.6 602.5 444.6 602.1 444.9Z" fill="#17203A"></path>
                    <path d="M612.8 493.7C612.9 493.4 613 493.1 613 492.8C613 493.1 612.9 493.4 612.8 493.7ZM612.3 494.6C612.3 494.6 612.4 494.3 612.8 494C612.7 494.3 612.7 494.3 612.3 494.6ZM605.7 486C605 488.8 606.2 492.4 608.3 494.6C609.4 495.5 610.7 495.8 611.8 495.4L611.4 495.6L678 474.8C678.7 474.6 679.6 473.8 679.9 472.3C680 472 680.1 471.7 680.1 471.4L680.2 471.1C680.3 470.8 680.3 470.8 680.4 470.5C680.4 470.5 680.4 470.5 680.5 470.2L680.6 469.9L680.7 469.6L680.8 469.3C680.8 469.3 680.9 469 680.6 468.9C680.6 468.9 680.7 468.6 680.4 468.5C680.4 468.5 680.5 468.2 680.2 468.1L680 467.7L679.8 467.3C679.8 467.3 679.8 467.3 679.6 466.9C679.6 466.9 679.6 466.9 679.4 466.5L679.2 466.1C679.2 466.1 678.9 466 679 465.7C678.8 465.3 678.4 465.2 678.2 464.8C677.9 464.7 678 464.4 677.6 464.3C677.6 464.3 677.6 464.3 677.3 464.2C677.3 464.2 677.3 464.2 677 464.1L676.7 464C676.7 464 676.7 464 676.4 463.9L676.1 463.8L675.8 463.7C675.8 463.7 675.8 463.7 675.5 463.6C675.5 463.6 675.5 463.6 675.2 463.5L608.2 483.2C606.9 483.6 606 484.4 605.7 486ZM609.8 484C609.9 483.7 609.6 483.6 609.8 484C609.6 483.6 609.9 483.7 609.8 484ZM611.8 495.1L612.2 494.9C612.2 494.9 611.9 494.8 611.8 495.1Z" fill="#17203A"></path>
                    <path d="M622.5 544C622.6 543.7 622.7 543.4 622.7 543.1C622.7 543.4 622.6 543.7 622.5 544ZM622 544.9C622 544.9 622.1 544.6 622.5 544.3C622.1 544.6 622.1 544.6 622 544.9ZM615.4 536.3C614.7 539.1 615.9 542.7 618 544.9C619.1 545.8 620.4 546.1 621.5 545.7L621.1 545.9L687.6 525.4C688.3 525.2 689.2 524.4 689.5 522.9C689.6 522.6 689.7 522.3 689.7 522L689.8 521.7C689.9 521.4 689.9 521.4 689.9 521.1C689.9 521.1 689.9 521.1 690 520.8L690.1 520.5L690.2 520.2L690.3 519.9C690.3 519.9 690.4 519.6 690.1 519.5C690.1 519.5 690.2 519.2 689.9 519.1C689.9 519.1 690 518.8 689.7 518.7L689.5 518.3L689.3 517.9C689.3 517.9 689.3 517.9 689.1 517.5C689.1 517.5 689.1 517.5 688.9 517.1L688.7 516.7C688.7 516.7 688.4 516.6 688.5 516.3C688.3 515.9 687.9 515.8 687.7 515.4C687.4 515.3 687.5 515 687.1 514.9C687.1 514.9 687.1 514.9 686.8 514.8C686.8 514.8 686.8 514.8 686.5 514.7L686.2 514.6C686.2 514.6 686.2 514.6 685.9 514.5L685.6 514.4L685.3 514.3C685.3 514.3 685.3 514.3 685 514.2C685 514.2 685 514.2 684.7 514.1L617.8 533.5C616.3 533.9 615.7 534.7 615.4 536.3ZM619.6 534C619.3 533.9 619.3 533.9 619.6 534C619.3 533.9 619.3 533.9 619.6 534ZM618 533.6C618 533.6 617.7 533.5 618 533.6C617.7 533.5 618 533.6 618 533.6ZM621.5 545.4L621.9 545.2C621.6 545.1 621.6 545.1 621.5 545.4Z" fill="#17203A"></path>
                    <path d="M632.2 594.3C632.3 594 632.3 593.7 632.4 593.4C632.4 593.7 632.3 594 632.2 594.3ZM631.7 595.2C631.7 595.2 631.8 594.9 632.2 594.6C631.8 594.8 631.8 594.8 631.7 595.2ZM625.1 586.3C624.4 589.1 625.6 592.7 627.7 594.9C628.8 595.8 630.1 596.1 631.2 595.7L630.8 595.9L697.3 575.4C698 575.2 698.9 574.4 699.2 572.9C699.3 572.6 699.3 572.3 699.4 572L699.5 571.7C699.6 571.4 699.6 571.4 699.6 571.1C699.6 571.1 699.6 571.1 699.7 570.8L699.8 570.5L699.9 570.2L700 569.9C700 569.9 700.1 569.6 699.8 569.5C699.8 569.5 699.9 569.2 699.6 569.1C699.6 569.1 699.7 568.8 699.4 568.7L699.2 568.3L699 567.9C699 567.9 699 567.9 698.8 567.5C698.8 567.5 698.8 567.5 698.6 567.1L698.4 566.7C698.4 566.7 698.1 566.6 698.2 566.3C698 565.9 697.6 565.8 697.4 565.4C697.1 565.3 697.2 565 696.8 564.9C696.8 564.9 696.8 564.9 696.5 564.8C696.5 564.8 696.5 564.8 696.2 564.7L695.9 564.6C695.9 564.6 695.9 564.6 695.6 564.5L695.3 564.4L695 564.3C695 564.3 695 564.3 694.7 564.2C694.7 564.2 694.7 564.2 694.4 564.1L627 584C626 584.1 625.4 585 625.1 586.3ZM628.3 584C628.3 584 628 584 628.3 584C628 584 628.3 584 628.3 584ZM627.7 583.9C627.4 583.8 627.4 583.8 627.7 583.9C627.4 583.8 627.4 583.8 627.7 583.9ZM630.9 595.6L631.3 595.4C631.3 595.4 631.3 595.4 630.9 595.6Z" fill="#17203A"></path>
                    <path d="M641.6 644.5C641.7 644.2 641.8 643.9 641.8 643.6C641.8 643.9 641.7 644.2 641.6 644.5ZM641.1 645.4C641.1 645.4 641.2 645.1 641.6 644.8C641.5 645.1 641.5 645.1 641.1 645.4ZM634.5 636.5C633.8 639.3 635 642.9 637.1 645.1C638.2 646 639.5 646.3 640.6 645.9L640.2 646.1L706.7 625.6C707.4 625.4 708.3 624.6 708.6 623.1C708.7 622.8 708.8 622.5 708.8 622.2L708.9 621.9C709 621.6 709 621.6 709.1 621.3C709.1 621.3 709.1 621.3 709.2 621L709.3 620.7L709.4 620.4L709.5 620.1C709.5 620.1 709.6 619.8 709.3 619.7C709.3 619.7 709.4 619.4 709.1 619.3C709.1 619.3 709.2 619 708.9 618.9L708.7 618.5L708.5 618.1C708.5 618.1 708.5 618.1 708.3 617.7C708.3 617.7 708.3 617.7 708.1 617.3L707.9 616.9C707.9 616.9 707.6 616.8 707.7 616.5C707.5 616.1 707.1 616 706.9 615.6C706.6 615.5 706.7 615.2 706.3 615.1C706.3 615.1 706.3 615.1 706 615C706 615 706 615 705.7 614.9L705.4 614.8C705.4 614.8 705.4 614.8 705.1 614.7L704.8 614.6L704.5 614.5C704.5 614.5 704.5 614.5 704.2 614.4C704.2 614.4 704.2 614.4 703.9 614.3L636.9 634C635.7 634.4 634.8 635.2 634.5 636.5ZM638.1 634.3C637.7 634.2 637.7 634.2 638.1 634.3C637.7 634.2 637.7 634.2 638.1 634.3ZM640.6 645.9L641 645.7C641 645.7 640.7 645.6 640.6 645.9Z" fill="#17203A"></path>
                    <path d="M639.2 675.9C637.3 675.4 636 674.1 635.8 672.1L576 358.7C575.6 356.3 577.2 353.7 579.6 353.2C582 352.8 584.6 354.4 585.1 356.8L644.6 670.1C645 672.5 643.4 675.1 641 675.6C640.5 675.9 639.8 676 639.2 675.9Z" fill="#17203A"></path>
                </g>
                <defs>
                    <linearGradient id="paint0_linear" x1="1069.19" y1="-60.9004" x2="188.861" y2="500.039" gradientUnits="userSpaceOnUse">
                        <stop stop-color="#5C4599"></stop>
                        <stop offset="1" stop-color="#9342A6"></stop>
                    </linearGradient>
                </defs>
            </svg>